<?xml version='1.0' encoding='utf-8'?>
<svg xmlns="http://www.w3.org/2000/svg" width="210mm" height="297mm" version="1.1" style="shape-rendering:geometricPrecision; text-rendering:geometricPrecision; image-rendering:optimizeQuality; fill-rule:evenodd; clip-rule:evenodd" viewBox="0 0 21000 29700"> <defs> <style type="text/css">  .fil1 {fill:none} .fil0 {fill:black;fill-rule:nonzero}  </style> </defs> <g id="Ebene_x0020_1"> <metadata id="CorelCorpID_0Corel-Layer"/> <g id="_2301581752480"> <path class="fil0" d="M2716 10144c-202,42 -400,-89 -442,-291 -42,-202 89,-401 291,-442 29,-6 58,-11 85,-14l8 0 12 -4 67 0c392,4 722,276 939,712 177,358 285,844 280,1372l-1 1c-3,528 -119,1013 -303,1368 -225,433 -559,699 -949,696l-78 -5c-206,-18 -358,-200 -340,-405 18,-206 199,-359 405,-341l18 2c85,0 186,-110 279,-290 133,-257 217,-621 220,-1030l0 -1c4,-410 -74,-776 -203,-1035 -90,-181 -187,-294 -271,-295l-17 2zm-1527 -934c229,-429 568,-663 898,-788 317,-119 617,-136 801,-135 229,2 696,41 1100,289 276,169 519,428 639,824 34,110 62,254 85,422 81,592 107,1576 17,2439 -101,969 -371,1817 -915,1982 -39,12 -77,21 -113,26 -144,19 -12,2419 91,4290 76,1373 138,2506 -154,2701 -159,106 -263,171 -384,218 -132,51 -245,67 -415,74 -168,7 -332,-5 -488,-54 -177,-54 -334,-150 -466,-304 -227,-266 -145,-1607 -52,-3102l231 -3755c-58,-8 -117,-27 -175,-53l-1 -1c-458,-211 -728,-1056 -844,-2012 -106,-874 -104,-1871 -8,-2499 34,-221 82,-407 142,-540l11 -22zm1162 -89c-181,69 -366,195 -494,425 -32,72 -59,189 -83,341 -87,566 -87,1480 12,2291 88,723 228,1333 409,1423 656,140 512,2481 386,4536 -83,1337 -157,2536 -126,2572 32,38 71,62 115,75 63,20 145,24 237,20 89,-4 141,-9 178,-23l2 -1c47,-18 118,-64 237,-143 66,-44 -117,-897 -180,-2036 -120,-2174 -273,-4960 555,-5074 190,-66 314,-652 386,-1344 84,-802 60,-1713 -14,-2259 -19,-133 -38,-238 -59,-305 -59,-194 -178,-322 -314,-405 -248,-152 -560,-177 -714,-178 -128,-1 -333,10 -533,85zm-173 4476l4 2 -4 -2zm14143 -4405c8,-186 94,-448 284,-634 148,-145 354,-246 627,-240l7 -1c300,9 511,149 647,339 122,170 174,382 170,565 9,87 -47,1661 -50,1667 -1,31 1,72 6,118 12,109 40,237 89,333 14,28 -14,47 3,47 59,-6 99,-22 115,-45 28,-39 38,-115 29,-230 -45,-561 20,-1419 29,-2012 4,-254 93,-456 229,-603 158,-172 376,-261 596,-270l5 1c229,-7 445,73 608,228 157,150 260,364 270,625 -3,34 5,103 7,140 50,875 269,4719 -1060,4901 -155,21 -4,2475 113,4392 86,1405 157,2565 -137,2761l-1 1c-163,109 -269,174 -392,222 -134,52 -250,68 -423,76 -189,8 -377,-25 -547,-94l-1 -2c-171,-70 -326,-178 -448,-321 -230,-270 -139,-1654 -36,-3197 120,-1810 257,-3873 250,-3874 -1324,-203 -1110,-3172 -1015,-4483 12,-174 22,-316 26,-410zm805 -96c-38,36 -55,89 -56,126 -4,103 -15,251 -28,432 -80,1101 -259,3594 382,3693 684,105 523,2531 382,4662 -92,1382 -174,2622 -140,2662 43,51 99,90 162,115l0 -1c71,30 151,43 232,40 93,-4 147,-10 186,-25 51,-20 124,-67 246,-148 61,-41 -121,-923 -193,-2092 -136,-2221 -310,-5066 531,-5181 644,-88 458,-3368 415,-4114l-8 -155c-3,-56 -17,-94 -38,-114 -15,-15 -38,-22 -64,-22l-3 1c-31,1 -59,11 -76,30 -18,19 -30,54 -31,105l-30 1954c22,292 -36,529 -165,711 -146,207 -366,324 -649,355 -39,4 -71,6 -99,5l-2 0c-308,-9 -513,-200 -644,-454l0 -2c-95,-184 -146,-408 -166,-590 -9,-83 -12,-161 -10,-223 16,-555 25,-1115 48,-1669 0,-36 -10,-76 -32,-107 -9,-13 -27,-23 -54,-24l-6 -1c-41,-1 -70,12 -88,30l-2 1zm976 2291c3,0 -10,1 -4,1l4 -1zm-2644 7312c136,-156 372,-172 527,-36 156,136 172,372 36,528 -628,716 -1396,1278 -2244,1658 -848,380 -1778,580 -2729,572 -1804,-16 -3432,-762 -4605,-1955 -1158,-1178 -1872,-2792 -1875,-4568l0 -69c16,-1805 762,-3433 1955,-4606 1178,-1158 2791,-1872 4568,-1875l69 0c601,5 1196,94 1768,260 570,166 1120,411 1632,730 175,109 228,339 119,514 -109,175 -339,229 -514,120 -449,-280 -936,-497 -1445,-645 -502,-146 -1024,-224 -1550,-230l-15 0c-1599,-14 -3051,622 -4107,1660 -1055,1036 -1715,2475 -1731,4070l0 7c-14,1598 621,3051 1659,4107 1039,1056 2480,1717 4077,1731 843,7 1667,-170 2419,-507 752,-337 1432,-834 1986,-1466zm-8171 -5677c-84,188 -304,273 -492,190 -189,-84 -273,-305 -190,-493 300,-675 737,-1262 1277,-1729 540,-469 1182,-818 1889,-1018l1 0c1320,-373 2665,-176 3773,443 1107,619 1978,1661 2350,2977l0 1c372,1318 174,2662 -447,3770 -620,1107 -1663,1978 -2980,2350 -198,56 -406,-59 -463,-258 -56,-198 59,-405 257,-462 1121,-317 2008,-1057 2535,-1997 526,-939 694,-2079 379,-3196 -316,-1119 -1056,-2004 -1997,-2530 -941,-526 -2083,-694 -3200,-379 -605,171 -1151,467 -1608,863 -459,398 -830,897 -1084,1468z"/> <path class="fil1" d="M13398 18728l-134 -133 134 -133 0 266zm133 134l-133 -134 133 -133 0 267zm133 0l-133 -134 133 -133 0 267zm-266 -267l133 -133 133 133 -266 0z"/> <path class="fil1" d="M3202 21074l-133 -133 133 -133 0 266zm134 134l-134 -134 134 -133 0 267zm133 0l-133 -134 133 -133 0 267zm-267 -267l134 -133 133 133 -267 0z"/> <path class="fil1" d="M18513 21074l-133 -133 133 -133 0 266zm133 134l-133 -134 133 -133 0 267zm134 0l-134 -134 134 -133 0 267zm-267 -267l133 -133 134 133 -267 0z"/> </g> </g> </svg>